<svg width="92" height="27" viewBox="0 0 92 27" fill="none" xmlns="http://www.w3.org/2000/svg">
<circle cx="10.4121" cy="13.3854" r="10.4121" fill="white"/>
<path d="M44.0753 20.3662C43.0987 20.3662 42.2117 20.1872 41.4141 19.8291C40.6329 19.471 39.9655 18.9827 39.4122 18.3642C38.8588 17.7295 38.4274 16.997 38.1182 16.1669C37.8252 15.3206 37.6787 14.4172 37.6787 13.4569C37.6787 12.5129 37.8252 11.6258 38.1182 10.7957C38.4274 9.94938 38.8588 9.21694 39.4122 8.59844C39.9655 7.96367 40.6329 7.46724 41.4141 7.10916C42.2117 6.75108 43.0987 6.57204 44.0753 6.57204C45.6541 6.57204 46.9318 6.98709 47.9084 7.81718C48.9012 8.631 49.5116 9.74592 49.7395 11.162H47.4689C47.3062 10.2993 46.9399 9.62385 46.3703 9.13556C45.8006 8.64727 45.0356 8.40313 44.0753 8.40313C43.408 8.40313 42.8139 8.53334 42.2931 8.79376C41.7885 9.05418 41.3653 9.41226 41.0235 9.868C40.6817 10.3237 40.4213 10.8609 40.2422 11.4794C40.0795 12.0979 39.9981 12.757 39.9981 13.4569C39.9981 14.1731 40.0795 14.8404 40.2422 15.4589C40.4213 16.0611 40.6817 16.5901 41.0235 17.0458C41.3653 17.5016 41.7885 17.8597 42.2931 18.1201C42.8139 18.3805 43.408 18.5107 44.0753 18.5107C45.1007 18.5107 45.9064 18.234 46.4923 17.6806C47.0946 17.111 47.4364 16.3378 47.5178 15.3613H49.7639C49.6174 16.9401 49.0477 18.1689 48.0549 19.0478C47.0783 19.9268 45.7518 20.3662 44.0753 20.3662ZM52.1216 1.83564H54.3921V20H52.1216V1.83564ZM61.4861 20.2686C60.8676 20.2686 60.2816 20.1872 59.7282 20.0244C59.1911 19.8779 58.7191 19.6501 58.3122 19.3408C57.9216 19.0316 57.6123 18.6491 57.3844 18.1933C57.1566 17.7213 57.0426 17.1679 57.0426 16.5331C57.0426 15.7682 57.1728 15.1415 57.4333 14.6532C57.71 14.1649 58.0925 13.7743 58.5807 13.4813C59.0853 13.1884 59.6794 12.9605 60.363 12.7977C61.0629 12.635 61.836 12.5048 62.6824 12.4071C63.1707 12.3583 63.6101 12.2932 64.0008 12.2118C64.3914 12.1304 64.7251 12.0246 65.0018 11.8944C65.2785 11.7479 65.49 11.5689 65.6365 11.3573C65.783 11.1457 65.8563 10.869 65.8563 10.5272C65.8563 9.81103 65.6121 9.2495 65.1238 8.84259C64.6518 8.43568 63.9601 8.23223 63.0486 8.23223C62.0069 8.23223 61.2257 8.4601 60.7048 8.91583C60.2002 9.37157 59.9317 9.99007 59.8991 10.7713H57.7018C57.7181 10.2179 57.8402 9.68896 58.068 9.18439C58.2959 8.67983 58.6296 8.23223 59.069 7.8416C59.5085 7.45096 60.0538 7.14171 60.7048 6.91385C61.3721 6.68598 62.1453 6.57204 63.0242 6.57204C63.6427 6.57204 64.2205 6.62901 64.7576 6.74294C65.2947 6.85688 65.7749 7.03592 66.1981 7.28006C66.7515 7.60559 67.1828 8.06133 67.492 8.64727C67.8013 9.23322 67.9559 9.96565 67.9559 10.8446V16.9726C67.9559 17.4934 68.0454 17.8841 68.2245 18.1445C68.4035 18.4049 68.7779 18.47 69.3475 18.3398H69.4452V19.9268C69.2824 19.9756 69.1034 20.0163 68.9081 20.0488C68.729 20.0977 68.5012 20.1221 68.2245 20.1221C67.5246 20.1221 66.9956 19.9593 66.6375 19.6338C66.2794 19.292 66.0353 18.7711 65.9051 18.0713H65.8807C65.6691 18.3642 65.4249 18.6409 65.1482 18.9013C64.8715 19.1618 64.5542 19.3978 64.1961 19.6094C63.838 19.8047 63.4311 19.9593 62.9754 20.0732C62.5359 20.2035 62.0395 20.2686 61.4861 20.2686ZM62.0476 18.6084C62.6987 18.6084 63.2602 18.5026 63.7322 18.291C64.2205 18.0631 64.6193 17.7864 64.9285 17.4609C65.254 17.1191 65.49 16.7447 65.6365 16.3378C65.7993 15.9309 65.8807 15.5403 65.8807 15.1659V13.0175C65.5551 13.2291 65.1238 13.4162 64.5867 13.579C64.0659 13.7255 63.5369 13.8476 62.9998 13.9452C62.4627 14.0429 61.9744 14.1487 61.5349 14.2626C61.0954 14.3603 60.7211 14.5067 60.4118 14.7021C60.1026 14.8811 59.8584 15.1171 59.6794 15.4101C59.5166 15.6868 59.4353 16.053 59.4353 16.5087C59.4353 16.9319 59.5085 17.2819 59.655 17.5586C59.8015 17.819 59.9968 18.0306 60.2409 18.1933C60.4851 18.3561 60.7618 18.47 61.071 18.5351C61.3966 18.584 61.7221 18.6084 62.0476 18.6084ZM72.7812 24.5655C72.4068 24.5655 72.0325 24.5411 71.6581 24.4923C71.3001 24.4434 71.0315 24.3783 70.8525 24.2969V22.3438H70.9501C71.0803 22.4252 71.2675 22.4821 71.5116 22.5147C71.7721 22.5635 72.0406 22.5879 72.3173 22.5879C72.7731 22.5879 73.1556 22.474 73.4648 22.2461C73.7741 22.0345 74.0426 21.6195 74.2705 21.001C74.2705 20.9847 74.2949 20.8952 74.3437 20.7324C74.3926 20.5859 74.4495 20.415 74.5146 20.2197C74.5797 20.0244 74.6367 19.8372 74.6855 19.6582C74.7344 19.4792 74.7506 19.3734 74.7344 19.3408L69.7294 6.88943H72.1952L74.9053 14.1649C75.0355 14.5393 75.1657 14.9299 75.2959 15.3368C75.4261 15.7437 75.5482 16.1262 75.6621 16.4843C75.776 16.9075 75.89 17.3144 76.0039 17.705H76.0527C76.1667 17.3144 76.2887 16.9075 76.419 16.4843C76.5329 16.1262 76.655 15.7437 76.7852 15.3368C76.9154 14.9299 77.0456 14.5393 77.1758 14.1649L79.7881 6.88943H82.1564L76.5899 21.1963C76.3132 21.8799 76.0365 22.4414 75.7598 22.8809C75.4993 23.3204 75.2145 23.6622 74.9053 23.9063C74.6123 24.1667 74.2868 24.3376 73.9287 24.419C73.5869 24.5167 73.2044 24.5655 72.7812 24.5655Z" fill="white"/>
</svg>
